HIERARCHY
ROOT Root
{
  OFFSET 0.0 0.0 0.0
  CHANNELS 6 Xposition Yposition Zposition Zrotation Yrotation Xrotation
  JOINT Hips
  {
    OFFSET 0.0 100.0 0.0
    CHANNELS 6 Xposition Yposition Zposition Zrotation Yrotation Xrotation
    JOINT Spine1
    {
      OFFSET 5.003913 -0.037094 -0.013727
      CHANNELS 3 Zrotation Yrotation Xrotation
      JOINT Spine2
      {
        OFFSET 7.125363 -1e-06 0.0
        CHANNELS 3 Zrotation Yrotation Xrotation
        JOINT Chest
        {
          OFFSET 7.594027 1e-06 0.0
          CHANNELS 3 Zrotation Yrotation Xrotation
          JOINT Neck1
          {
            OFFSET 26.313086 -0.460272 -0.181672
            CHANNELS 3 Zrotation Yrotation Xrotation
            JOINT Neck2
            {
              OFFSET 8.045911 0.0 0.0
              CHANNELS 3 Zrotation Yrotation Xrotation
              JOINT Head
              {
                OFFSET 6.432774 0.0 0.0
                CHANNELS 3 Zrotation Yrotation Xrotation
                JOINT HeadEnd
                {
                  OFFSET 16.169773 0.06451 0.00362
                  CHANNELS 3 Zrotation Yrotation Xrotation
                }
                JOINT Jaw
                {
                  OFFSET 0.108741 3.12938 0.002639
                  CHANNELS 3 Zrotation Yrotation Xrotation
                }
                JOINT LeftEye
                {
                  OFFSET 4.45173 8.166359 3.206392
                  CHANNELS 3 Zrotation Yrotation Xrotation
                }
                JOINT RightEye
                {
                  OFFSET 4.436895 8.135758 -3.222429
                  CHANNELS 3 Zrotation Yrotation Xrotation
                }
              }
            }
          }
          JOINT LeftShoulder
          {
            OFFSET 23.218927 5.195579 1.621656
            CHANNELS 3 Zrotation Yrotation Xrotation
            JOINT LeftArm
            {
              OFFSET 15.902118 2e-06 -2e-06
              CHANNELS 3 Zrotation Yrotation Xrotation
              JOINT LeftForeArm
              {
                OFFSET 28.739307 0.0 -1e-06
                CHANNELS 3 Zrotation Yrotation Xrotation
                JOINT LeftHand
                {
                  OFFSET 27.093981 -4e-06 0.0
                  CHANNELS 3 Zrotation Yrotation Xrotation
                  JOINT LeftHandThumb1
                  {
                    OFFSET 2.276781 3.380274 0.83384
                    CHANNELS 3 Zrotation Yrotation Xrotation
                    JOINT LeftHandThumb2
                    {
                      OFFSET 4.705309 -1e-06 -1e-06
                      CHANNELS 3 Zrotation Yrotation Xrotation
                      JOINT LeftHandThumb3
                      {
                        OFFSET 2.798515 0.0 3e-06
                        CHANNELS 3 Zrotation Yrotation Xrotation
                        JOINT LeftHandThumbEnd
                        {
                          OFFSET 3.180793 4e-06 -4e-06
                          CHANNELS 3 Zrotation Yrotation Xrotation
                        }
                      }
                    }
                  }
                  JOINT LeftHandIndex1
                  {
                    OFFSET 3.247786 2.352677 0.137192
                    CHANNELS 3 Zrotation Yrotation Xrotation
                    JOINT LeftHandIndex2
                    {
                      OFFSET 6.367095 1e-06 0.0
                      CHANNELS 3 Zrotation Yrotation Xrotation
                      JOINT LeftHandIndex3
                      {
                        OFFSET 3.662364 0.0 0.0
                        CHANNELS 3 Zrotation Yrotation Xrotation
                        JOINT LeftHandIndex4
                        {
                          OFFSET 2.329242 4e-06 -4e-06
                          CHANNELS 3 Zrotation Yrotation Xrotation
                          JOINT LeftHandIndexEnd
                          {
                            OFFSET 2.767823 1e-06 0.0
                            CHANNELS 3 Zrotation Yrotation Xrotation
                          }
                        }
                      }
                    }
                  }
                  JOINT LeftHandMiddle1
                  {
                    OFFSET 3.163612 0.945023 -0.406112
                    CHANNELS 3 Zrotation Yrotation Xrotation
                    JOINT LeftHandMiddle2
                    {
                      OFFSET 6.276789 3e-06 0.0
                      CHANNELS 3 Zrotation Yrotation Xrotation
                      JOINT LeftHandMiddle3
                      {
                        OFFSET 4.35652 -1e-06 4e-06
                        CHANNELS 3 Zrotation Yrotation Xrotation
                        JOINT LeftHandMiddle4
                        {
                          OFFSET 2.996877 0.0 8e-06
                          CHANNELS 3 Zrotation Yrotation Xrotation
                          JOINT LeftHandMiddleEnd
                          {
                            OFFSET 2.323256 3e-06 -4e-06
                            CHANNELS 3 Zrotation Yrotation Xrotation
                          }
                        }
                      }
                    }
                  }
                  JOINT LeftHandRing1
                  {
                    OFFSET 2.882606 -0.309162 0.107445
                    CHANNELS 3 Zrotation Yrotation Xrotation
                    JOINT LeftHandRing2
                    {
                      OFFSET 6.033198 0.0 4e-06
                      CHANNELS 3 Zrotation Yrotation Xrotation
                      JOINT LeftHandRing3
                      {
                        OFFSET 4.350578 3e-06 0.0
                        CHANNELS 3 Zrotation Yrotation Xrotation
                        JOINT LeftHandRing4
                        {
                          OFFSET 2.651321 2e-06 -7e-06
                          CHANNELS 3 Zrotation Yrotation Xrotation
                          JOINT LeftHandRingEnd
                          {
                            OFFSET 1.937663 1e-06 -4e-06
                            CHANNELS 3 Zrotation Yrotation Xrotation
                          }
                        }
                      }
                    }
                  }
                  JOINT LeftHandPinky1
                  {
                    OFFSET 2.865315 -1.525436 0.575687
                    CHANNELS 3 Zrotation Yrotation Xrotation
                    JOINT LeftHandPinky2
                    {
                      OFFSET 5.54936 1e-06 -8e-06
                      CHANNELS 3 Zrotation Yrotation Xrotation
                      JOINT LeftHandPinky3
                      {
                        OFFSET 3.070974 0.0 -4e-06
                        CHANNELS 3 Zrotation Yrotation Xrotation
                        JOINT LeftHandPinky4
                        {
                          OFFSET 1.549672 1e-06 0.0
                          CHANNELS 3 Zrotation Yrotation Xrotation
                          JOINT LeftHandPinkyEnd
                          {
                            OFFSET 1.952123 0.0 0.0
                            CHANNELS 3 Zrotation Yrotation Xrotation
                          }
                        }
                      }
                    }
                  }
                }
              }
            }
          }
          JOINT RightShoulder
          {
            OFFSET 23.161716 5.296122 -1.380114
            CHANNELS 3 Zrotation Yrotation Xrotation
            JOINT RightArm
            {
              OFFSET -16.027195 -2e-06 1.1e-05
              CHANNELS 3 Zrotation Yrotation Xrotation
              JOINT RightForeArm
              {
                OFFSET -28.736639 4e-06 2e-06
                CHANNELS 3 Zrotation Yrotation Xrotation
                JOINT RightHand
                {
                  OFFSET -27.133619 6e-06 0.0
                  CHANNELS 3 Zrotation Yrotation Xrotation
                  JOINT RightHandThumb1
                  {
                    OFFSET -2.274328 -3.351035 -0.83067
                    CHANNELS 3 Zrotation Yrotation Xrotation
                    JOINT RightHandThumb2
                    {
                      OFFSET -4.703594 -3e-06 2e-06
                      CHANNELS 3 Zrotation Yrotation Xrotation
                      JOINT RightHandThumb3
                      {
                        OFFSET -2.794935 -4e-06 -3e-06
                        CHANNELS 3 Zrotation Yrotation Xrotation
                        JOINT RightHandThumbEnd
                        {
                          OFFSET -3.183852 4e-06 1e-06
                          CHANNELS 3 Zrotation Yrotation Xrotation
                        }
                      }
                    }
                  }
                  JOINT RightHandIndex1
                  {
                    OFFSET -3.253496 -2.33755 -0.127667
                    CHANNELS 3 Zrotation Yrotation Xrotation
                    JOINT RightHandIndex2
                    {
                      OFFSET -6.344434 0.0 0.0
                      CHANNELS 3 Zrotation Yrotation Xrotation
                      JOINT RightHandIndex3
                      {
                        OFFSET -3.654871 0.0 -8e-06
                        CHANNELS 3 Zrotation Yrotation Xrotation
                        JOINT RightHandIndex4
                        {
                          OFFSET -2.327586 -1e-06 0.0
                          CHANNELS 3 Zrotation Yrotation Xrotation
                          JOINT RightHandIndexEnd
                          {
                            OFFSET -2.770001 3e-06 8e-06
                            CHANNELS 3 Zrotation Yrotation Xrotation
                          }
                        }
                      }
                    }
                  }
                  JOINT RightHandMiddle1
                  {
                    OFFSET -3.168223 -0.944764 0.411762
                    CHANNELS 3 Zrotation Yrotation Xrotation
                    JOINT RightHandMiddle2
                    {
                      OFFSET -6.266691 -1e-06 -4e-06
                      CHANNELS 3 Zrotation Yrotation Xrotation
                      JOINT RightHandMiddle3
                      {
                        OFFSET -4.348901 0.0 0.0
                        CHANNELS 3 Zrotation Yrotation Xrotation
                        JOINT RightHandMiddle4
                        {
                          OFFSET -3.00024 2e-06 -4e-06
                          CHANNELS 3 Zrotation Yrotation Xrotation
                          JOINT RightHandMiddleEnd
                          {
                            OFFSET -2.321477 -4e-06 -4e-06
                            CHANNELS 3 Zrotation Yrotation Xrotation
                          }
                        }
                      }
                    }
                  }
                  JOINT RightHandRing1
                  {
                    OFFSET -2.885654 0.293261 -0.119232
                    CHANNELS 3 Zrotation Yrotation Xrotation
                    JOINT RightHandRing2
                    {
                      OFFSET -6.032835 -1e-06 -4e-06
                      CHANNELS 3 Zrotation Yrotation Xrotation
                      JOINT RightHandRing3
                      {
                        OFFSET -4.33881 0.0 -4e-06
                        CHANNELS 3 Zrotation Yrotation Xrotation
                        JOINT RightHandRing4
                        {
                          OFFSET -2.654903 -4e-06 -4e-06
                          CHANNELS 3 Zrotation Yrotation Xrotation
                          JOINT RightHandRingEnd
                          {
                            OFFSET -1.935122 0.0 4e-06
                            CHANNELS 3 Zrotation Yrotation Xrotation
                          }
                        }
                      }
                    }
                  }
                  JOINT RightHandPinky1
                  {
                    OFFSET -2.866241 1.503904 -0.60527
                    CHANNELS 3 Zrotation Yrotation Xrotation
                    JOINT RightHandPinky2
                    {
                      OFFSET -5.553177 -2e-06 0.0
                      CHANNELS 3 Zrotation Yrotation Xrotation
                      JOINT RightHandPinky3
                      {
                        OFFSET -3.062664 -1e-06 -4e-06
                        CHANNELS 3 Zrotation Yrotation Xrotation
                        JOINT RightHandPinky4
                        {
                          OFFSET -1.546529 2e-06 4e-06
                          CHANNELS 3 Zrotation Yrotation Xrotation
                          JOINT RightHandPinkyEnd
                          {
                            OFFSET -1.952341 0.0 -4e-06
                            CHANNELS 3 Zrotation Yrotation Xrotation
                          }
                        }
                      }
                    }
                  }
                }
              }
            }
          }
        }
      }
    }
    JOINT LeftLeg
    {
      OFFSET -8.443107 2.567604 10.043214
      CHANNELS 3 Zrotation Yrotation Xrotation
      JOINT LeftShin
      {
        OFFSET 43.229198 1e-06 -1e-06
        CHANNELS 3 Zrotation Yrotation Xrotation
        JOINT LeftFoot
        {
          OFFSET 42.298611 1e-06 1e-06
          CHANNELS 3 Zrotation Yrotation Xrotation
          JOINT LeftToeBase
          {
            OFFSET 14.165858 1e-06 0.0
            CHANNELS 3 Zrotation Yrotation Xrotation
            JOINT LeftToeEnd
            {
              OFFSET 6.7141 -0.234461 0.0
              CHANNELS 3 Zrotation Yrotation Xrotation
            }
          }
        }
      }
    }
    JOINT RightLeg
    {
      OFFSET -8.303923 2.592729 -10.047278
      CHANNELS 3 Zrotation Yrotation Xrotation
      JOINT RightShin
      {
        OFFSET -43.369682 0.0 1e-06
        CHANNELS 3 Zrotation Yrotation Xrotation
        JOINT RightFoot
        {
          OFFSET -42.260784 4e-06 2e-06
          CHANNELS 3 Zrotation Yrotation Xrotation
          JOINT RightToeBase
          {
            OFFSET -14.222245 -2e-06 -1e-06
            CHANNELS 3 Zrotation Yrotation Xrotation
            JOINT RightToeEnd
            {
              OFFSET -6.660062 0.232574 -2e-06
              CHANNELS 3 Zrotation Yrotation Xrotation
            }
          }
        }
      }
    }
  }
}
MOTION
Frames: 4
Frame Time: 0.03333333333333333
0.0 0.0 0.0 0.0 -0.0 0.0 1.906397 95.849136 2.108674 92.7286 11.723055 90.017822 -4.763069 0.645248 -0.125019 -12.784643 -0.293689 -0.551544 23.711765 0.841401 -1.962937 30.788311 -9.814874 3.100109 -2.114297 -0.584978 1.270362 -8.37591 -1.565297 2.120704 4e-06 -0.0 -1e-06 -0.169402 0.032148 -0.010004 0.368819 0.174384 0.042624 0.348751 -0.118483 -0.055574 -137.168655 -74.057564 153.590088 25.730068 -26.95142 -2.457729 36.97995 -1.671023 -0.195317 13.427166 -9.156456 21.718822 17.636627 -26.322729 52.411186 -19.466661 -14.395598 29.410385 -1e-06 -8.774819 -1e-06 15.685152 -18.442371 6.214122 -0.609776 -1.79565 -3.889326 -4.80709 -11.046814 -2.93785 3e-06 -20.976021 2e-06 -5.019972 -25.033562 -4.031882 6e-06 0.0 -1e-06 -10.634534 -5.686969 -3.565587 10.573271 -17.922955 -3.113901 2e-06 -13.821209 1e-06 -0.501779 -31.181505 -4.027017 -10.799693 -59.23737 6.632473 -13.982714 -7.150198 -2.875041 13.77273 -8.401493 -3.21824 0.347733 -34.211555 0.771654 -0.963028 -17.733372 2.621019 -2e-06 -0.0 -0.0 -17.346416 -20.095215 -4.201779 21.757557 -1.638377 3.866429 0.0 -6.338827 -1e-06 -1.697589 -22.591751 -6.194007 -1e-06 -3e-06 -4e-06 27.167877 -81.21772 168.277039 32.689575 -24.781944 -5.512238 35.165813 0.697402 0.010951 10.58777 -4.178 28.835546 22.182112 -20.375898 49.933319 -16.701811 -16.743525 28.476526 -1e-06 -12.690599 1e-06 16.919104 -18.090099 2.267732 -0.10592 -1.513857 -4.275882 -5.03904 -5.612874 -2.953557 5e-06 -11.020523 -2e-06 -6.111299 -15.89533 -3.840471 -0.0 -0.0 -1e-06 -10.283369 -5.680291 -4.341838 11.028292 -11.302405 -2.372633 -1.38427 -14.238585 -6.320118 -0.62544 -26.924191 -3.827602 -4.339889 -50.299019 -3.744874 -13.708524 -7.363479 -3.720938 18.141148 -14.052739 -3.242673 4e-06 -18.787275 -2e-06 -0.429713 -8.456047 2.555504 -0.0 -0.0 0.0 -15.923534 -20.094484 -5.473583 30.419201 -7.190823 1.735926 -1e-06 -8.162929 0.0 -1.861903 -22.861473 -6.167942 -1e-06 -3e-06 -2e-06 -169.620087 -14.585374 -19.706959 15.489535 -0.082346 0.291735 -71.891685 -12.856995 -25.282156 -4.546908 1.507463 2.140002 -1.0 2e-06 0.0 9.229501 -21.083736 -12.357627 17.700039 -0.136334 0.236696 -75.316978 -10.101568 -24.335533 -4.351266 0.656968 1.651232 -1.000002 1e-06 0.0 
0.0 0.0 0.0 0.0 -0.0 0.0 2.027397 95.912331 2.057838 92.76329 11.677672 89.809807 -4.760087 0.533155 -0.17097 -12.753284 -0.253388 -0.56101 23.644835 0.804632 -2.004345 30.748156 -9.526875 3.038195 -2.133411 -0.561103 1.342182 -8.397722 -1.646201 2.101766 5e-06 -0.0 -1e-06 -0.18636 0.027588 -0.004526 0.356788 0.165006 0.048283 0.336099 -0.117699 -0.051604 -136.375259 -74.14389 152.903778 25.689352 -26.91744 -2.368065 36.851845 -1.601889 -0.234024 13.823914 -9.210766 21.600689 17.636625 -26.322737 52.411201 -19.466663 -14.395598 29.410395 -1e-06 -8.774822 -1e-06 15.733196 -18.405413 6.160892 -0.609777 -1.795655 -3.889329 -4.807091 -11.046812 -2.93785 3e-06 -20.976021 2e-06 -5.019974 -25.033564 -4.031882 6e-06 0.0 0.0 -10.634537 -5.686972 -3.565587 10.573275 -17.922955 -3.113901 1e-06 -13.821211 2e-06 -0.501781 -31.181511 -4.027018 -10.70569 -59.3689 6.635197 -13.982717 -7.150198 -2.875042 13.772729 -8.401493 -3.218241 0.347729 -34.211555 0.771658 -0.963029 -17.73337 2.621019 -1e-06 -1e-06 -1e-06 -17.346426 -20.095222 -4.201779 21.757561 -1.638375 3.866429 2e-06 -6.338826 -1e-06 -1.697591 -22.591747 -6.194009 -1e-06 -3e-06 -4e-06 28.071068 -81.048714 167.452164 32.396858 -24.793779 -5.341215 35.355087 0.756182 0.050155 10.600989 -4.414576 29.039244 22.182116 -20.375895 49.933319 -16.701811 -16.743525 28.476526 -3e-06 -12.690599 -0.0 16.948135 -18.179625 2.263558 -0.10592 -1.513858 -4.275882 -5.039041 -5.612872 -2.953555 4e-06 -11.02052 -2e-06 -6.111298 -15.895334 -3.840469 -0.0 0.0 -0.0 -10.283369 -5.68029 -4.341838 11.028294 -11.302404 -2.372632 -1.384269 -14.238583 -6.32012 -0.625438 -26.924191 -3.827604 -4.342019 -50.468777 -3.692369 -13.708526 -7.363479 -3.720939 18.141148 -14.052739 -3.242672 6e-06 -18.78727 -2e-06 -0.429712 -8.456042 2.555504 1e-06 -0.0 0.0 -15.923536 -20.094484 -5.473584 30.41921 -7.190823 1.735927 -0.0 -8.162925 1e-06 -1.861902 -22.861469 -6.167943 -1e-06 -3e-06 -0.0 -169.447952 -14.339072 -19.74062 15.096735 -0.064394 0.350152 -71.788177 -12.957117 -25.309849 -4.688282 1.531509 2.147874 -0.999998 -0.0 -0.0 9.341481 -21.176186 -12.412721 17.106455 -0.151883 0.236618 -74.93837 -9.899067 -24.272833 -4.384027 0.643061 1.652209 -1.000001 0.0 -0.0 
0.0 0.0 0.0 0.0 -0.0 0.0 2.138201 95.943947 1.972393 92.785408 11.635979 89.613556 -4.772848 0.438975 -0.183701 -12.730299 -0.267093 -0.592517 23.627899 0.830709 -2.006147 30.664841 -9.239236 3.020934 -2.182462 -0.542021 1.38283 -8.384583 -1.703136 2.138511 5e-06 -0.0 -0.0 -0.194096 0.031453 -0.018132 0.330802 0.163708 0.035975 0.317079 -0.108453 -0.068021 -136.031082 -74.233803 152.670868 25.556841 -26.762678 -2.376788 36.780529 -1.634863 -0.287563 14.02892 -9.423254 21.45001 17.636627 -26.322727 52.411201 -19.466658 -14.395598 29.410389 -2e-06 -8.774819 -1e-06 15.72286 -18.361662 6.147095 -0.609777 -1.795655 -3.889328 -4.807089 -11.046811 -2.937849 5e-06 -20.976015 0.0 -5.019968 -25.033556 -4.031882 6e-06 1e-06 -1e-06 -10.634533 -5.686969 -3.565587 10.573271 -17.922955 -3.113901 3e-06 -13.821206 0.0 -0.501775 -31.181505 -4.027017 -10.706855 -59.416405 6.650848 -13.982713 -7.150198 -2.875041 13.772729 -8.401493 -3.218242 0.347733 -34.211552 0.771655 -0.963028 -17.73337 2.621019 -1e-06 -0.0 2e-06 -17.346416 -20.095215 -4.201784 21.757555 -1.638378 3.866427 2e-06 -6.338826 -1e-06 -1.697587 -22.591742 -6.194008 -1e-06 -3e-06 -4e-06 28.78179 -80.835793 166.841751 32.097504 -24.568714 -5.20397 35.479851 0.710262 -0.000799 10.606247 -4.485348 29.414097 22.182112 -20.375891 49.933308 -16.701807 -16.743521 28.476521 -1e-06 -12.690597 0.0 16.955965 -18.195868 2.270526 -0.10592 -1.513856 -4.27588 -5.03904 -5.61287 -2.953556 4e-06 -11.020515 -3e-06 -6.111297 -15.895328 -3.840471 -0.0 0.0 -0.0 -10.283369 -5.680288 -4.341839 11.028294 -11.302402 -2.372633 -1.384269 -14.238579 -6.320122 -0.625438 -26.924183 -3.8276 -4.309908 -50.553822 -3.68005 -13.708522 -7.363475 -3.72094 18.141146 -14.052734 -3.242672 6e-06 -18.787268 -1e-06 -0.429711 -8.456043 2.555504 0.0 -0.0 -0.0 -15.923532 -20.094482 -5.473582 30.419205 -7.190824 1.735926 2e-06 -8.162922 1e-06 -1.861899 -22.86146 -6.167941 -1e-06 -3e-06 -1e-06 -169.460022 -14.180267 -19.775023 15.040359 -0.05605 0.357459 -71.83757 -12.9472 -25.259062 -4.72598 1.545927 2.157987 -0.999999 0.0 0.0 9.295152 -21.302845 -12.486824 16.803356 -0.143072 0.21452 -74.704224 -9.602271 -24.242567 -4.406184 0.645666 1.656448 -1.000001 -1e-06 0.0 
0.0 0.0 0.0 0.0 -0.0 0.0 2.227104 95.958939 1.881749 92.784805 11.603714 89.410637 -4.775823 0.35538 -0.179167 -12.732788 -0.292376 -0.608197 23.656301 0.883747 -1.995877 30.55147 -8.950617 3.012174 -2.221269 -0.557775 1.462103 -8.419479 -1.72261 2.156808 5e-06 -0.0 0.0 -0.195399 0.0337 -0.029398 0.301894 0.163377 0.025443 0.291914 -0.103399 -0.081128 -135.903717 -74.315598 152.654739 25.433561 -26.522232 -2.420541 36.693367 -1.723186 -0.339638 14.099743 -9.532018 21.395565 17.636635 -26.322729 52.411205 -19.466656 -14.395597 29.410393 -1e-06 -8.774821 -3e-06 15.657881 -18.32123 6.178255 -0.609776 -1.795652 -3.889328 -4.80709 -11.046807 -2.937852 3e-06 -20.976015 -0.0 -5.01997 -25.033556 -4.031884 6e-06 -0.0 0.0 -10.634537 -5.686968 -3.565587 10.573272 -17.922951 -3.113901 2e-06 -13.821206 1e-06 -0.501776 -31.181501 -4.027018 -10.735378 -59.454372 6.694183 -13.982714 -7.150196 -2.875044 13.772725 -8.401493 -3.21824 0.347733 -34.211544 0.771656 -0.963028 -17.733368 2.62102 -2e-06 -0.0 1e-06 -17.346422 -20.095219 -4.201785 21.757559 -1.638377 3.866434 1e-06 -6.338826 1e-06 -1.69759 -22.591747 -6.194009 1e-06 -4e-06 -2e-06 29.372444 -80.621918 166.362335 31.821907 -24.241932 -4.955746 35.563576 0.680678 -0.036809 10.596349 -4.463537 29.87591 22.182135 -20.3759 49.933327 -16.701809 -16.743526 28.476526 -2e-06 -12.6906 -3e-06 16.969639 -18.19108 2.276397 -0.105919 -1.513858 -4.275882 -5.039043 -5.612873 -2.953556 4e-06 -11.020523 -2e-06 -6.111301 -15.895334 -3.840472 -0.0 1e-06 -1e-06 -10.283374 -5.680289 -4.341841 11.028293 -11.302406 -2.372631 -1.384272 -14.238584 -6.320121 -0.625442 -26.924192 -3.827597 -4.29179 -50.626598 -3.660011 -13.708527 -7.363477 -3.720941 18.14115 -14.05274 -3.242671 5e-06 -18.787273 -0.0 -0.429711 -8.456046 2.555505 -0.0 -0.0 -0.0 -15.923539 -20.094486 -5.473587 30.41921 -7.190827 1.735933 1e-06 -8.162929 1e-06 -1.861902 -22.861473 -6.167942 -1e-06 -3e-06 -1e-06 -169.528214 -14.080914 -19.789385 15.116679 -0.055182 0.341764 -71.923546 -12.95691 -25.261185 -4.776814 1.563462 2.161567 -0.999999 1e-06 0.0 9.163409 -21.406435 -12.509679 16.672688 -0.139516 0.193476 -74.562172 -9.318291 -24.241854 -4.462663 0.63764 1.65315 -1.000002 0.0 0.0 
